<?xml version="1.0" encoding="utf-8"?>
<svg xmlns="http://www.w3.org/2000/svg" xmlns:xlink="http://www.w3.org/1999/xlink" style="margin: auto; background: none; display: block; shape-rendering: auto;" width="44px" height="44px" viewBox="0 0 100 100" preserveAspectRatio="xMidYMid">
<g transform="rotate(0 50 50)">
  <rect x="47" y="24" rx="3" ry="6" width="6" height="12" fill="#ffd237">
    <animate attributeName="opacity" values="1;0" keyTimes="0;1" dur="3.0303030303030303s" begin="-2.7777777777777777s" repeatCount="indefinite"></animate>
  </rect>
</g><g transform="rotate(30 50 50)">
  <rect x="47" y="24" rx="3" ry="6" width="6" height="12" fill="#ffd237">
    <animate attributeName="opacity" values="1;0" keyTimes="0;1" dur="3.0303030303030303s" begin="-2.525252525252525s" repeatCount="indefinite"></animate>
  </rect>
</g><g transform="rotate(60 50 50)">
  <rect x="47" y="24" rx="3" ry="6" width="6" height="12" fill="#ffd237">
    <animate attributeName="opacity" values="1;0" keyTimes="0;1" dur="3.0303030303030303s" begin="-2.272727272727273s" repeatCount="indefinite"></animate>
  </rect>
</g><g transform="rotate(90 50 50)">
  <rect x="47" y="24" rx="3" ry="6" width="6" height="12" fill="#ffd237">
    <animate attributeName="opacity" values="1;0" keyTimes="0;1" dur="3.0303030303030303s" begin="-2.0202020202020203s" repeatCount="indefinite"></animate>
  </rect>
</g><g transform="rotate(120 50 50)">
  <rect x="47" y="24" rx="3" ry="6" width="6" height="12" fill="#ffd237">
    <animate attributeName="opacity" values="1;0" keyTimes="0;1" dur="3.0303030303030303s" begin="-1.7676767676767677s" repeatCount="indefinite"></animate>
  </rect>
</g><g transform="rotate(150 50 50)">
  <rect x="47" y="24" rx="3" ry="6" width="6" height="12" fill="#ffd237">
    <animate attributeName="opacity" values="1;0" keyTimes="0;1" dur="3.0303030303030303s" begin="-1.5151515151515151s" repeatCount="indefinite"></animate>
  </rect>
</g><g transform="rotate(180 50 50)">
  <rect x="47" y="24" rx="3" ry="6" width="6" height="12" fill="#ffd237">
    <animate attributeName="opacity" values="1;0" keyTimes="0;1" dur="3.0303030303030303s" begin="-1.2626262626262625s" repeatCount="indefinite"></animate>
  </rect>
</g><g transform="rotate(210 50 50)">
  <rect x="47" y="24" rx="3" ry="6" width="6" height="12" fill="#ffd237">
    <animate attributeName="opacity" values="1;0" keyTimes="0;1" dur="3.0303030303030303s" begin="-1.0101010101010102s" repeatCount="indefinite"></animate>
  </rect>
</g><g transform="rotate(240 50 50)">
  <rect x="47" y="24" rx="3" ry="6" width="6" height="12" fill="#ffd237">
    <animate attributeName="opacity" values="1;0" keyTimes="0;1" dur="3.0303030303030303s" begin="-0.7575757575757576s" repeatCount="indefinite"></animate>
  </rect>
</g><g transform="rotate(270 50 50)">
  <rect x="47" y="24" rx="3" ry="6" width="6" height="12" fill="#ffd237">
    <animate attributeName="opacity" values="1;0" keyTimes="0;1" dur="3.0303030303030303s" begin="-0.5050505050505051s" repeatCount="indefinite"></animate>
  </rect>
</g><g transform="rotate(300 50 50)">
  <rect x="47" y="24" rx="3" ry="6" width="6" height="12" fill="#ffd237">
    <animate attributeName="opacity" values="1;0" keyTimes="0;1" dur="3.0303030303030303s" begin="-0.25252525252525254s" repeatCount="indefinite"></animate>
  </rect>
</g><g transform="rotate(330 50 50)">
  <rect x="47" y="24" rx="3" ry="6" width="6" height="12" fill="#ffd237">
    <animate attributeName="opacity" values="1;0" keyTimes="0;1" dur="3.0303030303030303s" begin="0s" repeatCount="indefinite"></animate>
  </rect>
</g>
<!-- [ldio] generated by https://loading.io/ --></svg>